# xmcd
#
# Track frame offsets: 
#        150
#        16832
#        36615
#        55688
#        72574
#        86571
#        103886
#        121165
#        137580
#        159246
#
# Disc length: 2350 seconds
#
# Revision: 0
# Processed by: cddbd v1.5.2PL0 Copyright (c) Steve Scherf et al.
# Submitted via: ExactAudioCopy v0.99pb4
#
DISCID=82092c0a
DTITLE=Gladstone Anderson - Sings Songs For Today and Tomorrow
DYEAR=1982
DGENRE=Reggae
TTITLE0=Brimstone And Fire
TTITLE1=Speak The Truth
TTITLE2=Just Another Chance
TTITLE3=Thanks And Praise
TTITLE4=Advantage
TTITLE5=Travelling Raddix
TTITLE6=Mount Zion
TTITLE7=Mind Memory
TTITLE8=This Is It - Try It
TTITLE9=Let's Rap
EXTD=
EXTT0=
EXTT1=
EXTT2=
EXTT3=
EXTT4=
EXTT5=
EXTT6=
EXTT7=
EXTT8=
EXTT9=
PLAYORDER=
